<svg version="1.1" id="Layer_1" xmlns="http://www.w3.org/2000/svg" xmlns:xlink="http://www.w3.org/1999/xlink" x="0px" y="0px"
	 width="100%" viewBox="0 0 300 300" enable-background="new 0 0 300 300" xml:space="preserve">
<path fill="#FEFFFF" opacity="1.000000" stroke="none" 
	d="
M142.000000,301.000000 
	C94.666664,301.000000 47.833332,301.000000 1.000000,301.000000 
	C1.000000,201.000000 1.000000,101.000000 1.000000,1.000000 
	C101.000000,1.000000 201.000000,1.000000 301.000000,1.000000 
	C301.000000,101.000000 301.000000,201.000000 301.000000,301.000000 
	C248.166672,301.000000 195.333328,301.000000 142.000000,301.000000 
M161.176361,65.344170 
	C156.211456,60.658463 151.136444,56.082050 146.329300,51.239731 
	C144.016418,48.909927 142.494156,48.493114 139.861572,51.015247 
	C116.057671,73.820328 92.093193,96.457649 68.236671,119.207985 
	C60.032051,127.032158 59.965706,134.595535 68.226570,142.316193 
	C83.793472,156.865097 99.527626,171.235184 115.208496,185.661942 
	C120.573280,190.597672 125.986671,195.480576 131.599976,200.589767 
	C138.622391,193.929047 145.483139,187.634338 152.079712,181.074051 
	C155.318359,177.853210 154.629745,174.038879 150.937714,170.681274 
	C138.749893,159.597549 126.558884,148.516632 114.455002,137.341599 
	C109.047523,132.349075 109.127991,129.106705 114.449692,124.056961 
	C125.318489,113.743591 136.205734,103.449654 147.083786,93.146019 
	C154.200104,86.405472 161.313599,79.661942 168.865082,72.505890 
	C166.271408,70.097153 163.977188,67.966499 161.176361,65.344170 
M174.916382,158.554733 
	C178.897736,162.337250 182.798981,166.208847 186.880951,169.879456 
	C191.846909,174.344955 192.141922,177.792816 187.317917,182.429642 
	C174.603256,194.650879 161.686920,206.664062 149.072571,218.987015 
	C143.660126,224.274445 138.797165,230.124344 133.489792,235.931793 
	C141.329620,243.331436 149.637802,251.173111 158.244263,259.296326 
	C163.486938,254.293091 168.388336,249.590118 173.317245,244.916153 
	C193.484100,225.792465 213.711319,206.732025 233.804016,187.530792 
	C241.094727,180.563568 240.747772,172.180405 233.378769,165.369370 
	C220.549561,153.511536 207.789719,141.578598 194.952042,129.729965 
	C186.662354,122.078957 178.285767,114.522095 169.962219,106.935898 
	C169.033508,107.488243 168.384476,107.730949 167.922882,108.170502 
	C161.895859,113.909622 155.837280,119.617630 149.908310,125.456993 
	C145.843323,129.460556 146.139465,132.959457 150.554688,136.872314 
	C158.514679,143.926636 166.460052,150.997467 174.916382,158.554733 
z"/>
<path fill="#393738" opacity="1.000000" stroke="none" 
	d="
M161.429657,65.590012 
	C163.977188,67.966499 166.271408,70.097153 168.865082,72.505890 
	C161.313599,79.661942 154.200104,86.405472 147.083786,93.146019 
	C136.205734,103.449654 125.318489,113.743591 114.449692,124.056961 
	C109.127991,129.106705 109.047523,132.349075 114.455002,137.341599 
	C126.558884,148.516632 138.749893,159.597549 150.937714,170.681274 
	C154.629745,174.038879 155.318359,177.853210 152.079712,181.074051 
	C145.483139,187.634338 138.622391,193.929047 131.599976,200.589767 
	C125.986671,195.480576 120.573280,190.597672 115.208496,185.661942 
	C99.527626,171.235184 83.793472,156.865097 68.226570,142.316193 
	C59.965706,134.595535 60.032051,127.032158 68.236671,119.207985 
	C92.093193,96.457649 116.057671,73.820328 139.861572,51.015247 
	C142.494156,48.493114 144.016418,48.909927 146.329300,51.239731 
	C151.136444,56.082050 156.211456,60.658463 161.429657,65.590012 
z"/>
<path fill="#5C81EA" opacity="1.000000" stroke="none" 
	d="
M174.663971,158.308060 
	C166.460052,150.997467 158.514679,143.926636 150.554688,136.872314 
	C146.139465,132.959457 145.843323,129.460556 149.908310,125.456993 
	C155.837280,119.617630 161.895859,113.909622 167.922882,108.170502 
	C168.384476,107.730949 169.033508,107.488243 169.962219,106.935898 
	C178.285767,114.522095 186.662354,122.078957 194.952042,129.729965 
	C207.789719,141.578598 220.549561,153.511536 233.378769,165.369370 
	C240.747772,172.180405 241.094727,180.563568 233.804016,187.530792 
	C213.711319,206.732025 193.484100,225.792465 173.317245,244.916153 
	C168.388336,249.590118 163.486938,254.293091 158.244263,259.296326 
	C149.637802,251.173111 141.329620,243.331436 133.489792,235.931793 
	C138.797165,230.124344 143.660126,224.274445 149.072571,218.987015 
	C161.686920,206.664062 174.603256,194.650879 187.317917,182.429642 
	C192.141922,177.792816 191.846909,174.344955 186.880951,169.879456 
	C182.798981,166.208847 178.897736,162.337250 174.663971,158.308060 
z"/>
</svg>