<svg xmlns="http://www.w3.org/2000/svg" xmlns:xlink="http://www.w3.org/1999/xlink" width="150" zoomAndPan="magnify" viewBox="0 0 112.5 112.499997" height="150" preserveAspectRatio="xMidYMid meet" version="1.0"><defs><clipPath id="a436aeba3a"><path d="M 0 0 L 112.003906 0 L 112.003906 112.003906 L 0 112.003906 Z M 0 0 " clip-rule="nonzero"/></clipPath></defs><g clip-path="url(#a436aeba3a)"><path fill="#feffff" d="M 53.015625 112.375 C 35.34375 112.375 17.859375 112.375 0.375 112.375 C 0.375 75.042969 0.375 37.707031 0.375 0.375 C 37.707031 0.375 75.042969 0.375 112.375 0.375 C 112.375 37.707031 112.375 75.042969 112.375 112.375 C 92.652344 112.375 72.925781 112.375 53.015625 112.375 M 60.171875 24.394531 C 58.320312 22.644531 56.425781 20.9375 54.628906 19.128906 C 53.765625 18.261719 53.199219 18.105469 52.214844 19.046875 C 43.328125 27.558594 34.382812 36.011719 25.476562 44.503906 C 22.414062 47.425781 22.386719 50.25 25.472656 53.132812 C 31.285156 58.5625 37.15625 63.929688 43.011719 69.316406 C 45.015625 71.15625 47.035156 72.980469 49.132812 74.886719 C 51.753906 72.402344 54.316406 70.050781 56.777344 67.601562 C 57.988281 66.398438 57.730469 64.976562 56.351562 63.722656 C 51.800781 59.585938 47.25 55.449219 42.730469 51.273438 C 40.710938 49.410156 40.742188 48.199219 42.730469 46.316406 C 46.785156 42.464844 50.851562 38.621094 54.914062 34.773438 C 57.570312 32.257812 60.226562 29.742188 63.042969 27.070312 C 62.074219 26.171875 61.21875 25.375 60.171875 24.394531 M 65.304688 59.195312 C 66.789062 60.605469 68.246094 62.050781 69.769531 63.421875 C 71.625 65.089844 71.734375 66.378906 69.933594 68.109375 C 65.1875 72.671875 60.363281 77.15625 55.65625 81.757812 C 53.632812 83.730469 51.820312 85.914062 49.835938 88.082031 C 52.765625 90.84375 55.867188 93.773438 59.078125 96.804688 C 61.035156 94.9375 62.867188 93.183594 64.707031 91.4375 C 72.234375 84.296875 79.789062 77.179688 87.289062 70.011719 C 90.011719 67.410156 89.882812 64.28125 87.128906 61.738281 C 82.339844 57.3125 77.578125 52.855469 72.785156 48.433594 C 69.6875 45.578125 66.5625 42.753906 63.453125 39.921875 C 63.105469 40.128906 62.863281 40.21875 62.691406 40.382812 C 60.441406 42.527344 58.179688 44.65625 55.96875 46.839844 C 54.449219 48.332031 54.558594 49.640625 56.207031 51.101562 C 59.179688 53.734375 62.144531 56.375 65.304688 59.195312 Z M 65.304688 59.195312 " fill-opacity="1" fill-rule="nonzero"/></g><path fill="#393738" d="M 60.269531 24.488281 C 61.21875 25.375 62.074219 26.171875 63.042969 27.070312 C 60.226562 29.742188 57.570312 32.257812 54.914062 34.773438 C 50.851562 38.621094 46.785156 42.464844 42.730469 46.316406 C 40.742188 48.199219 40.710938 49.410156 42.730469 51.273438 C 47.25 55.449219 51.800781 59.585938 56.351562 63.722656 C 57.730469 64.976562 57.988281 66.398438 56.777344 67.601562 C 54.316406 70.050781 51.753906 72.402344 49.132812 74.886719 C 47.035156 72.980469 45.015625 71.15625 43.011719 69.316406 C 37.15625 63.929688 31.285156 58.5625 25.472656 53.132812 C 22.386719 50.25 22.414062 47.425781 25.476562 44.503906 C 34.382812 36.011719 43.328125 27.558594 52.214844 19.046875 C 53.199219 18.105469 53.765625 18.261719 54.628906 19.128906 C 56.425781 20.9375 58.320312 22.644531 60.269531 24.488281 Z M 60.269531 24.488281 " fill-opacity="1" fill-rule="nonzero"/><path fill="#5c81ea" d="M 65.210938 59.101562 C 62.144531 56.375 59.179688 53.734375 56.207031 51.101562 C 54.558594 49.640625 54.449219 48.332031 55.96875 46.839844 C 58.179688 44.65625 60.441406 42.527344 62.691406 40.382812 C 62.863281 40.21875 63.105469 40.128906 63.453125 39.921875 C 66.5625 42.753906 69.6875 45.578125 72.785156 48.433594 C 77.578125 52.855469 82.339844 57.3125 87.128906 61.738281 C 89.882812 64.28125 90.011719 67.410156 87.289062 70.011719 C 79.789062 77.179688 72.234375 84.296875 64.707031 91.4375 C 62.867188 93.183594 61.035156 94.9375 59.078125 96.804688 C 55.867188 93.773438 52.765625 90.84375 49.835938 88.082031 C 51.820312 85.914062 53.632812 83.730469 55.65625 81.757812 C 60.363281 77.15625 65.1875 72.671875 69.933594 68.109375 C 71.734375 66.378906 71.625 65.089844 69.769531 63.421875 C 68.246094 62.050781 66.789062 60.605469 65.210938 59.101562 Z M 65.210938 59.101562 " fill-opacity="1" fill-rule="nonzero"/></svg>